<svg width="29" height="29" viewBox="0 0 29 29" fill="none" xmlns="http://www.w3.org/2000/svg">
<path d="M18.9584 14.479H10" stroke="#24CCA7" stroke-width="1.5" stroke-linecap="round" stroke-linejoin="round"/>
<path d="M14.4792 18.9584L10 14.4792L14.4792 10" stroke="#24CCA7" stroke-width="1.5" stroke-linecap="round" stroke-linejoin="round"/>
<path fill-rule="evenodd" clip-rule="evenodd" d="M14.1667 2.12496C7.52676 2.12496 2.12501 7.52671 2.12501 14.1666C2.12501 20.8065 7.52676 26.2083 14.1667 26.2083C20.8066 26.2083 26.2083 20.8065 26.2083 14.1666C26.2083 7.52671 20.8066 2.12496 14.1667 2.12496ZM14.1667 28.3333C6.35517 28.3333 0 21.9782 0 14.1667C0 6.35517 6.35517 0 14.1667 0C21.9782 0 28.3333 6.35517 28.3333 14.1667C28.3333 21.9782 21.9782 28.3333 14.1667 28.3333Z" fill="#24CCA7"/>
</svg>
