<svg width="34" height="34" viewBox="0 0 34 34" fill="none" xmlns="http://www.w3.org/2000/svg">
<path fill-rule="evenodd" clip-rule="evenodd" d="M29.2775 14.0312H4.02687C3.44037 14.0312 2.96437 13.5552 2.96437 12.9687C2.96437 12.3822 3.44037 11.9062 4.02687 11.9062H29.2775C29.864 11.9062 30.34 12.3822 30.34 12.9687C30.34 13.5552 29.864 14.0312 29.2775 14.0312" fill="#4A56E2"/>
<path fill-rule="evenodd" clip-rule="evenodd" d="M22.9517 19.5635C22.3652 19.5635 21.8835 19.0875 21.8835 18.501C21.8835 17.9145 22.3524 17.4385 22.9389 17.4385H22.9517C23.5382 17.4385 24.0142 17.9145 24.0142 18.501C24.0142 19.0875 23.5382 19.5635 22.9517 19.5635" fill="#4A56E2"/>
<path fill-rule="evenodd" clip-rule="evenodd" d="M16.6652 19.5635C16.0787 19.5635 15.5971 19.0875 15.5971 18.501C15.5971 17.9145 16.066 17.4385 16.6525 17.4385H16.6652C17.2517 17.4385 17.7277 17.9145 17.7277 18.501C17.7277 19.0875 17.2517 19.5635 16.6652 19.5635" fill="#4A56E2"/>
<path fill-rule="evenodd" clip-rule="evenodd" d="M10.3656 19.5635C9.7791 19.5635 9.29602 19.0875 9.29602 18.501C9.29602 17.9145 9.76635 17.4385 10.3529 17.4385H10.3656C10.9521 17.4385 11.4281 17.9145 11.4281 18.501C11.4281 19.0875 10.9521 19.5635 10.3656 19.5635" fill="#4A56E2"/>
<path fill-rule="evenodd" clip-rule="evenodd" d="M22.9517 25.0698C22.3652 25.0698 21.8835 24.5938 21.8835 24.0073C21.8835 23.4208 22.3524 22.9448 22.9389 22.9448H22.9517C23.5382 22.9448 24.0142 23.4208 24.0142 24.0073C24.0142 24.5938 23.5382 25.0698 22.9517 25.0698" fill="#4A56E2"/>
<path fill-rule="evenodd" clip-rule="evenodd" d="M16.6652 25.0698C16.0787 25.0698 15.5971 24.5938 15.5971 24.0073C15.5971 23.4208 16.066 22.9448 16.6525 22.9448H16.6652C17.2517 22.9448 17.7277 23.4208 17.7277 24.0073C17.7277 24.5938 17.2517 25.0698 16.6652 25.0698" fill="#4A56E2"/>
<path fill-rule="evenodd" clip-rule="evenodd" d="M10.3656 25.0698C9.7791 25.0698 9.29602 24.5938 9.29602 24.0073C9.29602 23.4208 9.76635 22.9448 10.3529 22.9448H10.3656C10.9521 22.9448 11.4281 23.4208 11.4281 24.0073C11.4281 24.5938 10.9521 25.0698 10.3656 25.0698" fill="#4A56E2"/>
<path fill-rule="evenodd" clip-rule="evenodd" d="M22.3741 8.20375C21.7876 8.20375 21.3116 7.72775 21.3116 7.14125V2.479C21.3116 1.8925 21.7876 1.4165 22.3741 1.4165C22.9606 1.4165 23.4366 1.8925 23.4366 2.479V7.14125C23.4366 7.72775 22.9606 8.20375 22.3741 8.20375" fill="#4A56E2"/>
<path fill-rule="evenodd" clip-rule="evenodd" d="M10.93 8.20375C10.3435 8.20375 9.86751 7.72775 9.86751 7.14125V2.479C9.86751 1.8925 10.3435 1.4165 10.93 1.4165C11.5165 1.4165 11.9925 1.8925 11.9925 2.479V7.14125C11.9925 7.72775 11.5165 8.20375 10.93 8.20375" fill="#4A56E2"/>
<mask id="mask0_161_8574" style="mask-type:alpha" maskUnits="userSpaceOnUse" x="2" y="3" width="29" height="29">
<path fill-rule="evenodd" clip-rule="evenodd" d="M2.83334 3.65381H30.4583V31.8751H2.83334V3.65381Z" fill="white"/>
</mask>
<g mask="url(#mask0_161_8574)">
<path fill-rule="evenodd" clip-rule="evenodd" d="M10.6547 5.77873C6.98133 5.77873 4.95833 7.73798 4.95833 11.2952V24.1146C4.95833 27.7498 6.98133 29.7501 10.6547 29.7501H22.6369C26.3103 29.7501 28.3333 27.7866 28.3333 24.2223V11.2952C28.339 9.54564 27.8687 8.18564 26.9351 7.25064C25.9746 6.28731 24.4942 5.77873 22.6497 5.77873H10.6547ZM22.6369 31.8752H10.6548C5.831 31.8752 2.83334 28.9016 2.83334 24.1147V11.2953C2.83334 6.58064 5.831 3.65381 10.6548 3.65381H22.6497C25.0708 3.65381 27.0725 4.37914 28.4396 5.74906C29.767 7.08214 30.4654 8.99889 30.4583 11.2981V24.2224C30.4583 28.9427 27.4607 31.8752 22.6369 31.8752V31.8752Z" fill="#4A56E2"/>
</g>
</svg>
