<svg width="22" height="24" viewBox="0 0 22 24" fill="none" xmlns="http://www.w3.org/2000/svg">
<path d="M18 16.7602C17.1133 16.7602 16.32 17.1102 15.7133 17.6585L7.395 12.8168C7.45333 12.5485 7.5 12.2802 7.5 12.0002C7.5 11.7202 7.45333 11.4518 7.395 11.1835L15.62 6.3885C16.25 6.97183 17.0783 7.3335 18 7.3335C19.9367 7.3335 21.5 5.77016 21.5 3.8335C21.5 1.89683 19.9367 0.333496 18 0.333496C16.0633 0.333496 14.5 1.89683 14.5 3.8335C14.5 4.1135 14.5467 4.38183 14.605 4.65016L6.38 9.44516C5.75 8.86183 4.92167 8.50016 4 8.50016C2.06333 8.50016 0.5 10.0635 0.5 12.0002C0.5 13.9368 2.06333 15.5002 4 15.5002C4.92167 15.5002 5.75 15.1385 6.38 14.5552L14.6867 19.4085C14.6283 19.6535 14.5933 19.9102 14.5933 20.1668C14.5933 22.0452 16.1217 23.5735 18 23.5735C19.8783 23.5735 21.4067 22.0452 21.4067 20.1668C21.4067 18.2885 19.8783 16.7602 18 16.7602Z" fill="#4A56E2"/>
</svg>
